<?xml version="1.0" standalone="no"?>
<!DOCTYPE svg PUBLIC "-//W3C//DTD SVG 20010904//EN"
 "http://www.w3.org/TR/2001/REC-SVG-20010904/DTD/svg10.dtd">
<svg version="1.0" xmlns="http://www.w3.org/2000/svg"
 width="206.000000pt" height="206.000000pt" viewBox="0 0 206.000000 206.000000"
 preserveAspectRatio="xMidYMid meet">
<metadata>
Created by potrace 1.11, written by Peter Selinger 2001-2013
</metadata>
<g transform="translate(0.000000,206.000000) scale(0.100000,-0.100000)"
fill="#000000" stroke="none">
<path d="M855 2011 c-9 -25 -20 -55 -25 -66 -5 -11 -23 -60 -40 -110 -17 -49
-40 -112 -51 -140 -10 -27 -31 -84 -47 -125 l-28 -75 -179 -2 c-242 -2 -235
-1 -235 -15 0 -7 -34 -107 -75 -224 -41 -117 -75 -216 -75 -222 0 -5 75 -9
190 -9 104 0 192 -2 196 -5 3 -3 -9 -46 -27 -94 -17 -49 -38 -107 -46 -129 -8
-22 -73 -202 -145 -400 -72 -198 -133 -368 -136 -378 -4 -16 12 -17 244 -17
l249 0 39 108 c21 59 58 161 83 228 l44 121 310 0 c172 0 314 4 318 9 7 8 53
132 108 294 8 25 18 52 21 60 3 8 13 36 22 63 l17 47 -211 -1 c-116 0 -257 0
-313 0 l-103 1 17 43 c9 23 20 44 24 47 4 3 99 4 212 4 l205 -1 20 56 c88 245
142 404 138 408 -3 3 -95 5 -205 5 -117 -1 -201 3 -201 8 0 5 7 27 16 49 l16
39 299 0 c165 0 304 3 308 8 9 10 161 439 161 455 0 7 -184 9 -549 8 l-550 -3
-16 -45z"/>
</g>
</svg>
